# AST/ASF file generated using VICON BodyLanguage
# -----------------------------------------------
:version 1.10
:name VICON
:units
  mass 1.0
  length 0.45
  angle deg
:documentation
   .ast/.asf automatically generated from VICON data using
   VICON BodyBuilder and BodyLanguage model FoxedUp or BRILLIANT.MOD
:root
   order TX TY TZ RX RY RZ
   axis XYZ
   position 0 0 0  
   orientation 0 0 0 
:bonedata
  begin
     id 1 
     name lhipjoint
     direction 0.541323 -0.757556 0.364798 
     length 2.47576 
     axis 0 0 0  XYZ
  end
  begin
     id 2 
     name lfemur
     direction 0.34202 -0.939693 0  
     length 7.46493  
     axis 0 0 20  XYZ
    dof rx ry rz
    limits (-160.0 20.0)
           (-70.0 70.0)
           (-60.0 70.0)
  end
  begin
     id 3 
     name ltibia
     direction 0.34202 -0.939693 0   
     length 7.73805   
     axis 0 0 20   XYZ
    dof rx
    limits (-10.0 170.0)
  end
  begin
     id 4 
     name lfoot
     direction 0.107174 -0.294458 0.949636   
     length 2.25864   
     axis -90 7.62852e-016 20   XYZ
    dof rx rz
    limits (-45.0 90.0)
           (-70.0 20.0)
  end
  begin
     id 5 
     name ltoes
     direction 1.53606e-011 -4.21934e-011 1   
     length 1.12451   
     axis -90 7.62852e-016 20   XYZ
    dof rx
    limits (-90.0 20.0)
  end
  begin
     id 6 
     name rhipjoint
     direction -0.524745 -0.766967 0.36933   
     length 2.44538  
     axis 0 0 0  XYZ 
  end
  begin
     id 7 
     name rfemur
     direction -0.34202 -0.939693 0   
     length 7.61604   
     axis 0 0 -20   XYZ
    dof rx ry rz
    limits (-160.0 20.0)
           (-70.0 70.0)
           (-70.0 60.0)
  end
  begin
     id 8 
     name rtibia
     direction -0.34202 -0.939693 0   
     length 7.61056   
     axis 0 0 -20   XYZ
    dof rx
    limits (-10.0 170.0)
 end
 begin
     id 9 
     name rfoot
     direction -0.12616 -0.346623 0.929482   
     length 2.46372  
     axis -90 -7.62852e-016 -20   XYZ
    dof rx rz
    limits (-45.0 90.0)
           (-20.0 70.0)
  end
  begin
     id 10 
     name rtoes
     direction -1.53531e-011 -4.22004e-011 1   
     length 1.21611   
     axis -90 -7.62852e-016 -20   XYZ
    dof rx
    limits (-90.0 20.0)
  end
  begin
     id 11 
     name lowerback
     direction -0.000778023 0.997293 -0.0735223   
     length 2.06139   
     axis 0 0 0   XYZ
    dof rx ry rz
    limits (-20.0 45.0)
           (-30.0 30.0)
           (-30.0 30.0)
  end
  begin
     id 12 
     name upperback
     direction 0.0222598 0.999722 -0.0078355   
     length 2.06383   
     axis 0 0 0   XYZ
    dof rx ry rz
    limits (-20.0 45.0)
           (-30.0 30.0)
           (-30.0 30.0)
  end
  begin
     id 13 
     name thorax
     direction 0.0219654 0.999405 0.0265994   
     length 2.07163   
     axis 0 0 0   XYZ
    dof rx ry rz
    limits (-20.0 45.0)
           (-30.0 30.0)
           (-30.0 30.0)
  end
  begin
     id 14 
     name lowerneck
     direction 0.0213282 0.988147 0.15202   
     length 1.75969   
     axis 0 0 0   XYZ
    dof rx ry rz
    limits (-20.0 45.0)
           (-30.0 30.0)
           (-30.0 30.0)
  end
  begin
     id 15 
     name upperneck
     direction -0.0546456 0.982624 -0.177379   
     length 1.79244   
     axis 0 0 0   XYZ
    dof rx ry rz
    limits (-20.0 45.0)
           (-30.0 30.0)
           (-30.0 30.0)
  end
  begin
     id 16
     name head
     direction -0.0199987 0.996855 -0.076686  
     length 1.80555  
     axis 0 0 0   XYZ
    dof rx ry rz
    limits (-20.0 45.0)
           (-30.0 30.0)
           (-30.0 30.0)
  end
  begin
     id 17 
     name lclavicle
     direction 0.929565 0.363219 -0.063096  
     length 3.55722  
     axis 0 0 0   XYZ
    dof ry rz
    limits (-20.0 10.0)
           (0.0 20.0)
  end
  begin
     id 18 
     name lhumerus
     direction 1 -4.48993e-011 -2.36203e-027   
     length 4.92785   
     axis 180 -30 -90   XYZ
    dof rx ry rz
    limits (-60.0 90.0)
           (-90.0 90.0)
           (-90.0 90.0)
  end
  begin
     id 19
     name lradius
     direction 1 -4.48947e-011 2.02997e-027   
     length 3.44052   
     axis 180 -30 -90   XYZ
    dof rx
    limits (-10.0 170.0)
  end
  begin
     id 20
     name lwrist
     direction 1 -4.48962e-011 1.45991e-027   
     length 1.72026   
     axis 1.49639e-024 90 90   XYZ
    dof ry
    limits (-180.0 0.0)
 end
  begin
     id 21 
     name lhand
     direction 1 -4.48984e-011 2.91906e-027   
     length 0.654326   
     axis -1.863e-015 90 90   XYZ
    dof rx rz
    limits (-90.0 90.0)
           (-45.0 45.0)
  end
  begin
     id 22 
     name lfingers
     direction 1 -4.48961e-011 5.83968e-027   
     length 0.527534   
     axis -3.72598e-015 90 90   XYZ
    dof rx
    limits (0.0 90.0)
  end
  begin
     id 23
     name lthumb
     direction 0.707107 -6.34963e-011 0.707107   
     length 0.757437   
     axis -90 45 -6.68868e-015   XYZ
    dof rx rz
    limits (-45.0 45.0)
           (-45.0 45.0)
  end
  begin
     id 24 
     name rclavicle
     direction -0.902944 0.422599 -0.0781198   
     length 3.54432  
     axis 0 0 0   XYZ 
    dof ry rz
    limits (-10.0 20.0)
           (-20.0 0.0)
  end
  begin
     id 25 
     name rhumerus
     direction -1 -4.48953e-011 -4.75835e-028  
     length 5.09181   
     axis 180 30 90   XYZ
    dof rx ry rz
    limits (-90.0 60.0)
           (-90.0 90.0)
           (-90.0 90.0)
  end
  begin
     id 26 
     name rradius
     direction -1 -4.48986e-011 -3.25889e-027   
     length 3.49865   
     axis 180 30 90   XYZ
    dof rx
    limits (-10.0 170.0)
  end
  begin
     id 27 
     name rwrist
     direction -1 -4.48963e-011 1.45989e-027   
     length 1.74933   
     axis 1.49639e-024 -90 -90   XYZ
    dof ry
    limits (-180.0 0.0)
  end
  begin
     id 28
     name rhand
     direction -1 -4.49003e-011 2.91844e-027   
     length 0.66641   
     axis -1.863e-015 -90 -90   XYZ
    dof rx rz
    limits (-90.0 90.0)
           (-45.0 45.0)
  end
  begin
     id 29
     name rfingers
     direction -1 -4.48973e-011 5.83886e-027   
     length 0.537277   
     axis -3.72598e-015 -90 -90   XYZ
    dof rx
    limits (0.0 90.0)
  end
  begin
     id 30
     name rthumb
     direction -0.707107 -6.34976e-011 0.707107   
     length 0.771425   
     axis -90 -45 6.68868e-015   XYZ
    dof rx rz
    limits (-45.0 45.0)
           (-45.0 45.0)
  end
:hierarchy
  begin
    root lhipjoint rhipjoint lowerback
    lhipjoint lfemur
    lfemur ltibia
    ltibia lfoot
    lfoot ltoes
    rhipjoint rfemur
    rfemur rtibia
    rtibia rfoot
    rfoot rtoes
    lowerback upperback
    upperback thorax
    thorax lowerneck lclavicle rclavicle
    lowerneck upperneck
    upperneck head
    lclavicle lhumerus
    lhumerus lradius
    lradius lwrist
    lwrist lhand lthumb
    lhand lfingers
    rclavicle rhumerus
    rhumerus rradius
    rradius rwrist
    rwrist rhand rthumb
    rhand rfingers
  end

#!OML:ASF H:\LiuWeirdWalks\Patient Classification 1\Patient 1\Session 1\male.ASF
:FULLY-SPECIFIED
:DEGREES
90
root 2.29666 17.8225 -29.1768 3.66816 1.83062 1.37389
lowerback 9.07492 -0.474299 -5.94255
upperback 1.64725 -1.08831 2.99093
thorax -3.20137 -0.473446 6.62751
lowerneck -18.592 1.15259 5.9468
upperneck 30.6146 1.67571 -6.08848
head 13.5473 0.588774 -3.16546
rclavicle 3.27995e-015 2.3059e-014
rhumerus -39.5335 -8.35733 -72.8191
rradius 35.3337
rwrist -9.46433
rhand -17.1192 -0.966552
rfingers 7.12502
rthumb 9.12031 -30.7494
lclavicle 3.27995e-015 2.3059e-014
lhumerus -33.948 3.09141 82.3014
lradius 32.6696
lwrist 8.12131
lhand -12.5029 -2.55658
lfingers 7.12502
lthumb 13.5723 26.981
rfemur -18.5004 -6.46088 8.71926
rtibia 78.79
rfoot 13.808 -3.80636
rtoes -8.11946
lfemur -8.24151 2.59957 -28.8148
ltibia 23.2358
lfoot -13.9618 9.98836
ltoes -2.93962
91
root 2.29642 17.8246 -29.1758 3.84924 1.77337 1.36029
lowerback 9.14422 -0.384655 -5.91534
upperback 1.61633 -0.971583 2.95283
thorax -3.29203 -0.411188 6.56045
lowerneck -18.6363 1.06816 5.88025
upperneck 30.5992 1.53206 -5.96799
head 13.537 0.534497 -3.12913
rclavicle -2.98177e-016 8.74653e-015
rhumerus -39.6447 -8.4626 -72.8332
rradius 35.3905
rwrist -9.50935
rhand -17.1106 -0.98198
rfingers 7.12502
rthumb 9.12866 -30.7644
lclavicle -2.98177e-016 8.74653e-015
lhumerus -33.9378 2.84305 82.3477
lradius 32.7899
lwrist 8.2289
lhand -12.5597 -2.60025
lfingers 7.12502
lthumb 13.5176 26.941
rfemur -18.6737 -6.50611 8.7401
rtibia 78.8695
rfoot 13.8615 -3.76887
rtoes -8.03177
lfemur -8.43645 2.66741 -28.7946
ltibia 23.2318
lfoot -14.0133 9.89679
ltoes -3.01115
92
root 2.29594 17.8268 -29.174 4.02304 1.73091 1.33585
lowerback 9.21633 -0.248237 -5.8429
upperback 1.58059 -0.790183 2.86705
thorax -3.40048 -0.316678 6.40867
lowerneck -18.6474 0.898221 5.83084
upperneck 30.5798 1.23717 -5.78098
head 13.506 0.426041 -3.0938
rclavicle 2.98177e-016 3.18055e-015
rhumerus -39.8315 -8.77975 -72.8437
rradius 35.4553
rwrist -9.53457
rhand -17.1232 -0.994508
rfingers 7.12502
rthumb 9.11644 -30.7775
lclavicle 2.98177e-016 3.18055e-015
lhumerus -33.9209 2.36487 82.3953
lradius 32.9115
lwrist 8.34968
lhand -12.6294 -2.61122
lfingers 7.12502
lthumb 13.4504 26.9345
rfemur -18.8255 -6.56836 8.77511
rtibia 78.9448
rfoot 13.9206 -3.73293
rtoes -7.85557
lfemur -8.61833 2.73452 -28.7573
ltibia 23.2252
lfoot -14.0643 9.7853
ltoes -3.07667
93
root 2.2952 17.8293 -29.1716 4.19175 1.71744 1.31035
lowerback 9.28881 -0.109786 -5.75876
upperback 1.57835 -0.604841 2.77556
thorax -3.47373 -0.222879 6.24246
lowerneck -18.6977 0.712452 5.76837
upperneck 30.4891 0.912644 -5.5724
head 13.4518 0.304959 -3.05039
rclavicle -3.97569e-015 -1.11319e-014
rhumerus -39.9569 -9.15627 -72.86
rradius 35.5149
rwrist -9.54467
rhand -17.1481 -0.998283
rfingers 7.12502
rthumb 9.09239 -30.7823
lclavicle -3.97569e-015 -1.11319e-014
lhumerus -33.829 1.85032 82.45
lradius 33.015
lwrist 8.45619
lhand -12.7025 -2.59264
lfingers 7.12502
lthumb 13.3799 26.9577
rfemur -18.9557 -6.66294 8.81294
rtibia 79.0147
rfoot 13.9558 -3.69483
rtoes -7.78257
lfemur -8.78815 2.78381 -28.713
ltibia 23.2148
lfoot -14.1183 9.65878
ltoes -3.12784
94
root 2.294 17.8319 -29.1682 4.35229 1.74673 1.28837
lowerback 9.3697 0.0367668 -5.65387
upperback 1.56807 -0.408254 2.65653
thorax -3.56093 -0.123334 6.03337
lowerneck -18.7074 0.491655 5.74627
upperneck 30.3635 0.525256 -5.36299
head 13.3708 0.161174 -3.02244
rclavicle -8.94531e-015 -9.54166e-015
rhumerus -40.1313 -9.63456 -72.8764
rradius 35.5788
rwrist -9.52311
rhand -17.1693 -0.982871
rfingers 7.12502
rthumb 9.07202 -30.7678
lclavicle -8.94531e-015 -9.54166e-015
lhumerus -33.74 1.22057 82.4943
lradius 33.1038
lwrist 8.56731
lhand -12.7619 -2.5639
lfingers 7.12502
lthumb 13.3227 26.9902
rfemur -19.0493 -6.79802 8.84952
rtibia 79.0782
rfoot 13.9502 -3.65759
rtoes -7.84492
lfemur -8.94055 2.81776 -28.6639
ltibia 23.2022
lfoot -14.1851 9.50663
ltoes -3.13647
95
root 2.29266 17.8347 -29.1644 4.51425 1.78752 1.24607
lowerback 9.44794 0.056788 -5.6029
upperback 1.58289 -0.380007 2.66155
thorax -3.59345 -0.109083 6.00716
lowerneck -18.7747 0.464368 5.68995
upperneck 30.1666 0.486024 -5.33041
head 13.299 0.139127 -3.00021
rclavicle 1.17283e-014 -2.06736e-014
rhumerus -40.0795 -9.65433 -72.9124
rradius 35.5949
rwrist -9.52653
rhand -17.1826 -0.954784
rfingers 7.12502
rthumb 9.05911 -30.7402
lclavicle 1.17283e-014 -2.06736e-014
lhumerus -33.7055 1.1057 82.5442
lradius 33.2074
lwrist 8.61965
lhand -12.8059 -2.52937
lfingers 7.12502
lthumb 13.2803 27.0275
rfemur -19.1383 -6.94221 8.91322
rtibia 79.1387
rfoot 13.9174 -3.62326
rtoes -8.02497
lfemur -9.09297 2.86163 -28.5883
ltibia 23.1883
lfoot -14.2639 9.33856
ltoes -3.13446
96
root 2.29132 17.8373 -29.16 4.67833 1.84369 1.18489
lowerback 9.51691 0.0617651 -5.53165
upperback 1.58781 -0.368864 2.67633
thorax -3.62875 -0.10318 5.98171
lowerneck -18.7803 0.445669 5.63998
upperneck 29.9389 0.465858 -5.31567
head 13.2029 0.123897 -2.98138
rclavicle 3.97569e-016 -7.95139e-016
rhumerus -40.0508 -9.6323 -72.9489
rradius 35.6254
rwrist -9.53133
rhand -17.1729 -0.903791
rfingers 7.12502
rthumb 9.06847 -30.6888
lclavicle 3.97569e-016 -7.95139e-016
lhumerus -33.7038 1.00931 82.5909
lradius 33.3063
lwrist 8.68498
lhand -12.8339 -2.51752
lfingers 7.12502
lthumb 13.2533 27.0411
rfemur -19.2173 -7.09799 8.99925
rtibia 79.1997
rfoot 13.8353 -3.57429
rtoes -8.31486
lfemur -9.24558 2.91042 -28.49
ltibia 23.1752
lfoot -14.3535 9.16317
ltoes -3.13832
97
root 2.2903 17.8397 -29.1546 4.84293 1.90527 1.12883
lowerback 9.5889 0.0527569 -5.46705
upperback 1.56959 -0.376958 2.69781
thorax -3.68712 -0.105318 5.96993
lowerneck -18.7477 0.446618 5.61291
upperneck 29.7287 0.481055 -5.33805
head 13.1092 0.122318 -2.97567
rclavicle -5.86415e-015 -2.62396e-014
rhumerus -40.0581 -9.5547 -72.9812
rradius 35.6674
rwrist -9.55227
rhand -17.1504 -0.862681
rfingers 7.12502
rthumb 9.09019 -30.6468
lclavicle -5.86415e-015 -2.62396e-014
lhumerus -33.7773 0.939292 82.6359
lradius 33.4174
lwrist 8.75774
lhand -12.851 -2.5281
lfingers 7.12502
lthumb 13.2369 27.0316
rfemur -19.2877 -7.26332 9.07469
rtibia 79.2629
rfoot 13.7818 -3.51147
rtoes -8.48388
lfemur -9.3955 2.97628 -28.3986
ltibia 23.1658
lfoot -14.4571 8.98518
ltoes -3.17239
98
root 2.28972 17.8416 -29.1481 5.00557 1.97238 1.09108
lowerback 9.65516 0.0335303 -5.41686
upperback 1.5391 -0.399882 2.71789
thorax -3.75295 -0.114096 5.9669
lowerneck -18.6955 0.454404 5.5979
upperneck 29.5593 0.511594 -5.38415
head 13.0297 0.12634 -2.98008
rclavicle 2.08724e-015 3.97569e-015
rhumerus -40.0885 -9.44211 -73.0145
rradius 35.7257
rwrist -9.59269
rhand -17.1165 -0.843201
rfingers 7.12502
rthumb 9.12291 -30.6259
lclavicle 2.08724e-015 3.97569e-015
lhumerus -33.8973 0.877616 82.681
lradius 33.5332
lwrist 8.85379
lhand -12.847 -2.54907
lfingers 7.12502
lthumb 13.2406 27.0104
rfemur -19.3454 -7.44299 9.12104
rtibia 79.3305
rfoot 13.713 -3.42851
rtoes -8.72097
lfemur -9.53707 3.05671 -28.3295
ltibia 23.1568
lfoot -14.5732 8.80544
ltoes -3.23218
99
root 2.2892 17.8433 -29.1403 5.16915 2.04736 1.06653
lowerback 9.71173 0.0108078 -5.37922
upperback 1.50988 -0.428268 2.7359
thorax -3.81122 -0.125754 5.96946
lowerneck -18.6755 0.462325 5.58088
upperneck 29.4513 0.541368 -5.42677
head 12.9828 0.130749 -2.98528
rclavicle -1.26228e-014 4.77083e-015
rhumerus -40.1106 -9.34102 -73.0425
rradius 35.7813
rwrist -9.61531
rhand -17.0641 -0.820684
rfingers 7.12502
rthumb 9.17348 -30.6012
lclavicle -1.26228e-014 4.77083e-015
lhumerus -34.02 0.82085 82.7274
lradius 33.6401
lwrist 8.93908
lhand -12.8365 -2.55981
lfingers 7.12502
lthumb 13.2508 26.999
rfemur -19.3952 -7.63584 9.14893
rtibia 79.401
rfoot 13.6956 -3.33551
rtoes -8.78356
lfemur -9.67062 3.14288 -28.2757
ltibia 23.1415
lfoot -14.6927 8.62891
ltoes -3.32625
